HIERARCHY
ROOT Hips
{
	OFFSET -0.001795 -0.223333 0.028219
	CHANNELS 6 Xposition Yposition Zposition Zrotation Yrotation Xrotation 
	JOINT LeftUpLeg
	{
		OFFSET 0.069520 -0.091406 -0.006815
		CHANNELS 3 Zrotation Yrotation Xrotation
		JOINT LeftLeg
		{
			OFFSET 0.034277 -0.375199 -0.004496
			CHANNELS 3 Zrotation Yrotation Xrotation
			JOINT LeftFoot
			{
				OFFSET -0.013596 -0.397961 -0.043693
				CHANNELS 3 Zrotation Yrotation Xrotation
				JOINT LeftToe
				{
					OFFSET 0.026358 -0.055791 0.119288
					CHANNELS 3 Zrotation Yrotation Xrotation
					End Site
					{
						OFFSET 0.000000 0.000000 0.000000
					}
				}
			}
		}
	}
	JOINT RightUpLeg
	{
		OFFSET -0.067670 -0.090522 -0.004320
		CHANNELS 3 Zrotation Yrotation Xrotation
		JOINT RightLeg
		{
			OFFSET -0.038290 -0.382569 -0.008850
			CHANNELS 3 Zrotation Yrotation Xrotation
			JOINT RightFoot
			{
				OFFSET 0.015774 -0.398415 -0.042312
				CHANNELS 3 Zrotation Yrotation Xrotation
				JOINT RightToe
				{
					OFFSET -0.025372 -0.048144 0.123348
					CHANNELS 3 Zrotation Yrotation Xrotation
					End Site
					{
						OFFSET 0.000000 0.000000 0.000000
					}
				}
			}
		}
	}
	JOINT Spine
	{
		OFFSET -0.002533 0.108963 -0.026696
		CHANNELS 3 Zrotation Yrotation Xrotation
		JOINT Spine1
		{
			OFFSET 0.005487 0.135180 0.001092
			CHANNELS 3 Zrotation Yrotation Xrotation
			JOINT Spine2
			{
				OFFSET 0.001457 0.052922 0.025425
				CHANNELS 3 Zrotation Yrotation Xrotation
				JOINT Neck
				{
					OFFSET -0.002778 0.213870 -0.042857
					CHANNELS 3 Zrotation Yrotation Xrotation
					JOINT Head
					{
						OFFSET 0.005152 0.064970 0.051349
						CHANNELS 3 Zrotation Yrotation Xrotation
						End Site
						{
							OFFSET 0.000000 0.000000 0.000000
						}
					}
				}
				JOINT LeftShoulder
				{
					OFFSET 0.078845 0.121749 -0.034090
					CHANNELS 3 Zrotation Yrotation Xrotation
					JOINT LeftArm
					{
						OFFSET 0.090977 0.030469 -0.008868
						CHANNELS 3 Zrotation Yrotation Xrotation
						JOINT LeftForeArm
						{
							OFFSET 0.259612 -0.012772 -0.027456
							CHANNELS 3 Zrotation Yrotation Xrotation
							JOINT LeftHand
							{
								OFFSET 0.249234 0.008986 -0.001171
								CHANNELS 3 Zrotation Yrotation Xrotation
								End Site
								{
									OFFSET 0.000000 0.000000 0.000000
								}
							}
						}
					}
				}
				JOINT RightShoulder
				{
					OFFSET -0.081759 0.118833 -0.038615
					CHANNELS 3 Zrotation Yrotation Xrotation
					JOINT RightArm
					{
						OFFSET -0.096012 0.032551 -0.009143
						CHANNELS 3 Zrotation Yrotation Xrotation
						JOINT RightForeArm
						{
							OFFSET -0.253742 -0.013329 -0.021401
							CHANNELS 3 Zrotation Yrotation Xrotation
							JOINT RightHand
							{
								OFFSET -0.255298 0.007772 -0.005559
								CHANNELS 3 Zrotation Yrotation Xrotation
								End Site
								{
									OFFSET 0.000000 0.000000 0.000000
								}
							}
						}
					}
				}
			}
		}
	}
}
MOTION
Frames: 14
Frame Time: 0.050000
-0.002641 0.925197 -0.007253 -0.982870 12.514213 9.576597 8.826226 -1.412195 -24.242295 -12.583359 1.778744 15.777696 17.695224 31.758245 14.316179 0.000000 0.000000 0.000000 -6.956501 0.272986 -30.685072 6.985840 -1.862263 18.150027 -1.947025 -6.944356 10.971602 0.000000 0.000000 0.000000 6.328083 -5.185165 34.334229 -2.879592 1.492144 -20.340138 -5.628617 5.448368 25.882469 19.978201 -7.568826 -29.005965 0.000000 0.000000 0.000000 -11.845467 -32.138251 12.317048 -15.369139 -34.979178 -0.030264 48.136078 -63.973935 -30.020120 0.000000 0.000000 0.000000 26.162979 11.841135 10.221652 30.128831 54.612491 7.510128 -25.414463 67.810043 -10.325358 0.000000 0.000000 0.000000 
-0.002511 0.924971 -0.007459 -1.040592 12.353895 9.687880 9.054297 -1.383031 -24.423224 -12.708631 1.826458 15.998056 17.681765 31.739210 14.420368 0.000000 0.000000 0.000000 -6.800608 0.330613 -30.849788 7.001610 -1.864956 18.270157 -1.930304 -6.885022 10.682274 0.000000 0.000000 0.000000 6.451930 -5.224950 34.373196 -2.990894 1.512591 -20.535045 -5.631076 5.480308 25.876825 20.232922 -7.964292 -28.203806 0.000000 0.000000 0.000000 -11.871522 -32.159236 12.351327 -15.788193 -35.014893 0.049054 47.336731 -64.869273 -29.920363 0.000000 0.000000 0.000000 26.402926 11.956042 10.336416 29.778882 54.865997 7.404053 -23.636601 67.694040 -9.161553 0.000000 0.000000 0.000000 
-0.002257 0.924816 -0.007422 -1.027550 12.365881 9.720106 9.072770 -1.384514 -24.467976 -12.785996 1.838990 15.940562 17.847177 31.943085 14.502558 0.000000 0.000000 0.000000 -6.692546 0.360563 -30.800254 6.860257 -1.813487 18.149540 -1.865047 -6.735815 10.582963 0.000000 0.000000 0.000000 6.581931 -5.287685 34.430225 -3.042556 1.524688 -20.509266 -5.676087 5.444837 25.847638 20.286848 -8.125245 -27.748054 0.000000 0.000000 0.000000 -11.756043 -32.138215 12.331459 -16.508636 -35.046945 0.192460 46.765323 -65.871320 -30.047553 0.000000 0.000000 0.000000 26.138701 12.061180 10.337840 29.890795 54.991073 7.522899 -22.825549 67.757832 -8.633207 0.000000 0.000000 0.000000 
-0.001928 0.924878 -0.007096 -1.008344 12.412005 9.779696 9.098163 -1.380417 -24.400254 -12.822878 1.837385 15.808479 17.792551 31.876007 14.480806 0.000000 0.000000 0.000000 -6.561424 0.395714 -30.698691 6.785947 -1.785461 18.034902 -1.764965 -6.507604 10.443724 0.000000 0.000000 0.000000 6.709323 -5.328230 34.349905 -3.102463 1.539306 -20.476393 -5.740655 5.485821 25.762420 20.422499 -8.411197 -27.041389 0.000000 0.000000 0.000000 -12.023139 -32.055579 12.323304 -17.141066 -34.800469 0.309572 46.155993 -66.818475 -30.122201 0.000000 0.000000 0.000000 26.056141 12.077042 10.357707 29.815746 55.103467 7.529219 -21.844151 67.679046 -7.962909 0.000000 0.000000 0.000000 
-0.001493 0.925287 -0.006586 -0.951854 12.426390 9.849713 9.088283 -1.377811 -24.298073 -12.949115 1.855563 15.686461 17.791622 31.874330 14.468505 0.000000 0.000000 0.000000 -6.493117 0.414714 -30.636515 6.751905 -1.779321 18.077956 -1.762445 -6.460877 10.217258 0.000000 0.000000 0.000000 6.894477 -5.368742 34.181955 -3.310153 1.590795 -20.389048 -5.705634 5.486290 25.769702 20.370084 -8.400734 -26.954106 0.000000 0.000000 0.000000 -12.456514 -31.719565 12.229116 -18.269449 -34.542928 0.514644 44.959068 -68.100147 -29.917681 0.000000 0.000000 0.000000 25.840318 11.944436 10.225218 29.753100 54.972043 7.479604 -20.578725 67.868752 -7.165334 0.000000 0.000000 0.000000 
-0.000977 0.925287 -0.006108 -0.809958 12.549659 9.911496 8.986925 -1.392814 -24.163547 -13.012897 1.847621 15.452348 17.848700 31.945560 14.444456 0.000000 0.000000 0.000000 -6.582629 0.379881 -30.536403 6.720948 -1.778371 18.083170 -1.783046 -6.461497 10.079603 0.000000 0.000000 0.000000 7.034787 -5.440185 34.202619 -3.550131 1.650868 -20.461061 -5.652973 5.593758 25.868648 20.456780 -8.414782 -27.034102 0.000000 0.000000 0.000000 -12.888558 -31.520685 12.165703 -19.008760 -34.318019 0.639709 44.250141 -69.133428 -29.956806 0.000000 0.000000 0.000000 25.532815 11.700201 10.053825 29.811026 54.867587 7.490783 -19.868081 67.858707 -6.670875 0.000000 0.000000 0.000000 
-0.000449 0.925069 -0.005767 -0.682967 12.786695 9.933144 8.753766 -1.425477 -23.940385 -12.921473 1.801939 15.247946 17.732493 31.837226 14.104839 0.000000 0.000000 0.000000 -6.655263 0.337084 -30.447015 6.679625 -1.785381 18.148571 -1.722145 -6.262614 9.800848 0.000000 0.000000 0.000000 7.220918 -5.537574 34.197608 -3.550631 1.658294 -20.252011 -5.747746 5.746550 25.679822 20.621606 -8.612895 -26.571387 0.000000 0.000000 0.000000 -13.530268 -31.258605 12.066788 -19.571542 -33.788417 0.728049 43.312391 -69.741344 -29.623811 0.000000 0.000000 0.000000 25.231325 11.600859 10.005766 29.466271 54.700710 7.326106 -19.347815 67.599792 -6.303765 0.000000 0.000000 0.000000 
0.000010 0.924696 -0.005527 -0.545303 12.995028 10.054180 8.624029 -1.454349 -23.890708 -12.904961 1.778490 15.132321 17.763337 31.883008 14.084788 0.000000 0.000000 0.000000 -6.774798 0.281301 -30.522613 6.671732 -1.802952 18.254902 -1.709719 -6.178334 9.599230 0.000000 0.000000 0.000000 7.418530 -5.637727 34.183171 -3.770342 1.713347 -20.319121 -5.684383 5.874786 25.710070 20.838093 -8.751496 -26.454700 0.000000 0.000000 0.000000 -14.041394 -31.035859 11.977719 -20.063918 -33.350393 0.790316 42.438272 -70.242111 -29.261543 0.000000 0.000000 0.000000 24.933478 11.334990 9.845771 29.451897 54.786319 7.369257 -19.260602 67.128546 -6.158576 0.000000 0.000000 0.000000 
0.000405 0.924388 -0.005376 -0.398657 13.218607 10.196735 8.469101 -1.480329 -23.730917 -12.833816 1.733078 14.792793 17.843985 32.004858 13.923028 0.000000 0.000000 0.000000 -6.872891 0.230821 -30.511666 6.554470 -1.772733 18.147584 -1.732640 -6.177871 9.501416 0.000000 0.000000 0.000000 7.494414 -5.687243 34.143115 -3.783057 1.721547 -20.221421 -5.729086 5.951999 25.606681 20.922465 -8.799981 -26.349490 0.000000 0.000000 0.000000 -14.276398 -30.819766 11.854898 -20.299778 -32.868603 0.799938 41.513302 -70.422524 -28.709914 0.000000 0.000000 0.000000 24.739227 11.390209 9.904458 29.079807 54.939701 7.273134 -20.000528 66.356783 -6.546534 0.000000 0.000000 0.000000 
0.000674 0.924325 -0.005326 -0.247318 13.452143 10.272488 8.333778 -1.500342 -23.549471 -12.721997 1.688056 14.622894 17.923442 32.076909 14.094108 0.000000 0.000000 0.000000 -6.984994 0.177461 -30.455209 6.478501 -1.749453 17.954211 -1.708667 -6.139727 9.727236 0.000000 0.000000 0.000000 7.582172 -5.750875 34.145187 -3.862973 1.743511 -20.267651 -5.711672 6.073436 25.573086 21.053803 -8.626799 -27.043818 0.000000 0.000000 0.000000 -14.660375 -30.767442 11.820177 -20.357831 -32.490438 0.791296 40.702684 -70.706984 -28.289937 0.000000 0.000000 0.000000 24.661186 11.291196 9.899359 28.576522 55.307550 7.165051 -20.644530 65.342397 -6.840953 0.000000 0.000000 0.000000 
0.000834 0.924290 -0.005450 -0.128343 13.557467 10.310380 8.250584 -1.506147 -23.383372 -12.692223 1.663830 14.367085 18.035432 32.185169 14.265363 0.000000 0.000000 0.000000 -7.107831 0.133260 -30.429502 6.546248 -1.783001 18.036368 -1.739393 -6.179000 9.664797 0.000000 0.000000 0.000000 7.553124 -5.793979 34.347307 -3.759496 1.718088 -20.462749 -5.755085 6.304070 25.667756 21.004578 -8.371021 -27.643314 0.000000 0.000000 0.000000 -14.517060 -30.669806 11.690071 -19.972395 -32.534899 0.721375 40.640964 -70.713241 -28.325901 0.000000 0.000000 0.000000 24.380284 11.195227 9.867666 28.514729 55.858729 7.322650 -21.171946 64.224044 -6.994303 0.000000 0.000000 0.000000 
0.000956 0.924397 -0.005747 -0.004051 13.621285 10.195189 8.190857 -1.499104 -23.162514 -12.676234 1.652566 14.276685 18.097068 32.239950 14.317332 0.000000 0.000000 0.000000 -7.266590 0.084230 -30.407343 6.539771 -1.796181 18.194540 -1.594045 -5.914117 9.832446 0.000000 0.000000 0.000000 7.601017 -5.883523 34.663736 -3.747924 1.715363 -20.552862 -5.848533 6.261020 25.622976 20.880078 -8.238929 -27.841340 0.000000 0.000000 0.000000 -14.390159 -30.821446 11.761863 -19.260256 -32.541131 0.598376 40.726130 -70.324142 -28.199665 0.000000 0.000000 0.000000 24.314319 11.316464 9.901316 28.230105 56.236956 7.322464 -20.823686 63.242643 -6.727442 0.000000 0.000000 0.000000 
0.001072 0.924032 -0.006241 0.029684 13.559458 10.193840 8.201379 -1.487919 -23.076090 -12.592822 1.630712 14.018726 18.159636 32.296489 14.447630 0.000000 0.000000 0.000000 -7.191639 0.112273 -30.410122 6.519171 -1.786945 18.210444 -1.542995 -5.810313 9.779607 0.000000 0.000000 0.000000 7.556296 -5.901970 34.860976 -3.643247 1.685225 -20.605040 -5.846162 6.300875 25.521447 20.726177 -8.150047 -27.790640 0.000000 0.000000 0.000000 -13.933625 -31.022130 11.806415 -18.411369 -33.158878 0.490923 41.988666 -69.842118 -28.907282 0.000000 0.000000 0.000000 24.051743 11.507372 9.958342 27.961298 56.920435 7.442158 -21.068816 61.844991 -6.738895 0.000000 0.000000 0.000000 
0.001205 0.923868 -0.006938 0.047956 13.391858 10.282419 8.270709 -1.482295 -23.230987 -12.567542 1.638711 14.043362 18.382152 32.544078 14.717903 0.000000 0.000000 0.000000 -7.235476 0.110744 -30.654497 6.620626 -1.815559 18.329449 -1.427679 -5.621845 9.884344 0.000000 0.000000 0.000000 7.579081 -5.878446 34.790758 -3.548023 1.658686 -20.536386 -5.937475 6.238272 25.510880 20.242085 -7.795456 -28.033090 0.000000 0.000000 0.000000 -13.156001 -31.095336 11.783138 -17.435998 -33.909538 0.334761 44.339542 -69.387796 -30.412224 0.000000 0.000000 0.000000 23.744640 11.760415 9.998598 27.822087 57.670673 7.634814 -21.169831 60.726715 -6.700664 0.000000 0.000000 0.000000 
